PathFileType	4	(X/Y/Z)	E:\Marcel_BSc\Ayumi_22_01_2025\22-01-2025\static_00.trc
DataRate	CameraRate	NumFrames	NumMarkers	Units	OrigDataRate	OrigDataStartFrame	OrigNumFrames
200.0	200.0	4	59	mm	200.0	228	352	
Frame#	Time	FHD			LBHD			RBHD			RBAR			LBAR			RASI			RSACR			LSACR			LASI			USACR			C7			CLAV			T10			RSHO			LSHO			LTHI1			LTHI3			LTHI2			LLFC			LMFC			LTIB1			LTIB2			LTIB3			LMMAL			LLMAL			LHEE			LMT1			LMT5			LMT3			RTHI1			RTHI2			RTHI3			RLFC			RMFC			RTIB1			RTIB3			RTIB2			RLMAL			RMMAL			RHEE			RMT5			RMT1			RMT3			LMEP			LLEP			LDUPA			LMUPA			LUUPA			LUL			LRAD			LRFIN			RUL			RRAD			RUFIN			RMEP			RLEP			RMUPA			RDUPA			RUUPA			
		X1	Y1	Z1	X2	Y2	Z2	X3	Y3	Z3	X4	Y4	Z4	X5	Y5	Z5	X6	Y6	Z6	X7	Y7	Z7	X8	Y8	Z8	X9	Y9	Z9	X10	Y10	Z10	X11	Y11	Z11	X12	Y12	Z12	X13	Y13	Z13	X14	Y14	Z14	X15	Y15	Z15	X16	Y16	Z16	X17	Y17	Z17	X18	Y18	Z18	X19	Y19	Z19	X20	Y20	Z20	X21	Y21	Z21	X22	Y22	Z22	X23	Y23	Z23	X24	Y24	Z24	X25	Y25	Z25	X26	Y26	Z26	X27	Y27	Z27	X28	Y28	Z28	X29	Y29	Z29	X30	Y30	Z30	X31	Y31	Z31	X32	Y32	Z32	X33	Y33	Z33	X34	Y34	Z34	X35	Y35	Z35	X36	Y36	Z36	X37	Y37	Z37	X38	Y38	Z38	X39	Y39	Z39	X40	Y40	Z40	X41	Y41	Z41	X42	Y42	Z42	X43	Y43	Z43	X44	Y44	Z44	X45	Y45	Z45	X46	Y46	Z46	X47	Y47	Z47	X48	Y48	Z48	X49	Y49	Z49	X50	Y50	Z50	X51	Y51	Z51	X52	Y52	Z52	X53	Y53	Z53	X54	Y54	Z54	X55	Y55	Z55	X56	Y56	Z56	X57	Y57	Z57	X58	Y58	Z58	X59	Y59	Z59	
228	1.13	106.10352	1610.8093	-967.04297	124.52029	1593.6691	-906.79504	142.89861	1583.2784	-1037.7723				1041.0474	20.023396	-2031.6289	162.66855	927.23138	-1103.5382	322.89502	960.11273	-1015.6328	319.63724	960.70874	-942.02747	149.12164	912.38019	-866.11627	314.77194	970.47107	-979.95013	296.38867	1401.6469	-963.67999	162.18814	1329.0535	-981.03418	319.67145	1118.0039	-974.17755	235.53525	1406.7759	-1112.4976	214.75528	1398.736	-830.96484	237.26309	606.5459	-808.05499	261.80136	546.08746	-819.29553	211.19255	545.95325	-818.14233	229.87703	449.38815	-841.14301	242.37352	442.16507	-939.75317	256.6712	233.63576	-819.74078	306.89713	232.48859	-815.69794	280.08441	173.51208	-825.87964	284.30737	71.81218	-914.73358	297.86798	69.620766	-843.44135	340.99069	33.970592	-881.68811	143.84769	39.155396	-873.69025	169.43477	26.83695	-796.98871	144.83864	37.273769	-837.71008	257.6658	608.1214	-1157.0013	229.90585	549.40369	-1149.5093	281.65582	547.6684	-1147.5463	240.33315	455.21442	-1125.7141	247.78851	449.56778	-1024.7437	271.51059	276.90863	-1160.0028	294.39999	215.27133	-1155.6609	322.47626	275.28113	-1161.1583	307.62415	73.592537	-1134.9397	276.84564	75.636467	-1063.9962	351.5896	28.434811	-1095.3414	178.78487	29.319979	-1179.4536	151.09322	37.748569	-1115.5421	156.16934	36.020245	-1148.2823	202.46562	1278.2512	-580.9823	253.10281	1329.6332	-563.43866	252.07758	1361.6276	-644.40363	281.8674	1322.0845	-640.12811	268.09518	1367.7924	-704.26172	231.57286	1333.9749	-326.64551	167.85069	1351.337	-319.38608	178.9695	1348.2118	-245.30128	282.04022	1341.1639	-1611.6019	221.76364	1357.371	-1612.199	221.04022	1354.3367	-1686.4182	263.92804	1278.7902	-1374.4429	302.77832	1338.9363	-1377.4581	308.9668	1363.3303	-1217.3518	312.26349	1351.6022	-1277.5668	327.63107	1318.0636	-1207.6807
229	1.135	106.10184	1610.8068	-967.01459	124.54424	1593.6495	-906.75134	142.883	1583.2881	-1037.7371				1041.0223	20.019056	-2031.5931	162.65479	927.25647	-1103.5613	322.89441	960.03784	-1015.6508	319.63843	960.71283	-942.0235	149.13348	912.35455	-866.11981	314.7753	970.49866	-979.93457	296.38242	1401.6472	-963.65479	162.19669	1329.0786	-981.00061	319.68027	1117.9923	-974.16534	235.52875	1406.7928	-1112.4813	214.76761	1398.73	-830.92731	237.24161	606.52533	-808.0647	261.79138	546.09863	-819.30463	211.15933	545.86591	-818.39368	229.88544	449.36978	-841.13354	242.39427	442.13647	-939.7384	256.65045	233.64328	-819.75128	306.90402	232.48824	-815.68793	280.0611	173.52141	-825.87756	284.30356	71.808853	-914.7348	297.87231	69.619682	-843.43256	341.00467	33.969547	-881.73462	143.85858	39.155743	-873.69604	169.42398	26.867964	-796.96716	144.84425	37.267868	-837.70728	257.69995	608.12628	-1157.0002	229.8999	549.39618	-1149.5333	281.65869	547.67072	-1147.5234	240.34004	455.20477	-1125.7263	247.80782	449.55389	-1024.7174	271.51758	276.9288	-1160.0037	294.40533	215.27904	-1155.6523	322.44818	275.27399	-1161.137	307.61609	73.60154	-1134.9393	276.85953	75.630547	-1063.9969	351.59399	28.466116	-1095.3335	178.78751	29.332144	-1179.4448	151.09721	37.728798	-1115.5421	156.16234	36.020794	-1148.262	202.18651	1278.4963	-581.22321	253.11824	1329.6012	-563.42529	252.08136	1361.6047	-644.39575	281.86938	1322.0806	-640.11536	268.10349	1367.8181	-704.22906	231.56465	1333.9686	-326.62384	167.84213	1351.3328	-319.36548	178.96082	1348.2361	-245.29251	282.06589	1341.1503	-1611.5929	221.68292	1357.4803	-1612.6332	221.05743	1354.3508	-1686.4147	263.9567	1278.8193	-1374.421	302.78015	1338.9623	-1377.4451	308.97507	1363.3464	-1217.3229	312.2814	1351.5745	-1277.568	327.6283	1318.0907	-1207.6598
230	1.14	106.13036	1610.8052	-966.96582	124.56333	1593.6047	-906.7207	142.88611	1583.2881	-1037.6934				1040.9993	20.057888	-2031.5902	162.65715	927.24036	-1103.5597	322.90216	960.08899	-1015.6257	319.61404	960.75269	-942.00403	149.12509	912.35919	-866.11511	314.78122	970.49329	-979.9248	296.38394	1401.6578	-963.64374	162.18915	1329.0958	-980.97205	319.68771	1117.9894	-974.16553	235.51956	1406.8037	-1112.4561	214.73807	1398.7369	-830.91479	237.24944	606.52533	-808.05518	261.79642	546.07684	-819.29944	211.16592	545.86212	-818.39355	229.88499	449.37369	-841.12866	242.40494	442.12119	-939.72778	256.64743	233.63065	-819.75916	306.88943	232.49841	-815.6911	280.07452	173.50725	-825.86621	284.3078	71.801865	-914.73175	297.87802	69.615921	-843.43628	340.99792	33.957142	-881.71558	143.8699	39.176956	-873.68988	169.42761	26.840807	-796.98853	144.85103	37.251434	-837.73218	257.7493	608.05554	-1157.0021	229.93358	549.36108	-1149.5292	281.65906	547.68781	-1147.5303	240.3344	455.21371	-1125.7308	247.82094	449.53757	-1024.7152	271.5224	276.91681	-1159.9915	294.42493	215.25739	-1155.6522	322.45148	275.30829	-1161.1575	307.61685	73.573456	-1134.9502	276.86469	75.633995	-1064.0033	351.60867	28.416225	-1095.3364	178.76863	29.332548	-1179.4434	151.10033	37.715672	-1115.5525	156.16823	36.0028	-1148.2814	202.19458	1278.4795	-581.20612	253.12132	1329.6083	-563.4043	252.08267	1361.6074	-644.38074	281.87933	1322.0787	-640.0929	268.09827	1367.7966	-704.23236	231.57138	1333.9758	-326.61905	167.82413	1351.3503	-319.36133	179.00284	1348.2444	-245.25928	282.06891	1341.1926	-1611.5594	221.68489	1357.5127	-1612.6115	221.0536	1354.3857	-1686.3983	263.96249	1278.8344	-1374.3998	302.79333	1338.9714	-1377.418	308.96899	1363.3743	-1217.2893	312.28479	1351.5819	-1277.5563	327.64246	1318.0963	-1207.6409
231	1.145	106.1337	1610.7773	-966.96454	124.58342	1593.6191	-906.67383	142.87996	1583.2959	-1037.6639				1041.0348	20.034756	-2031.6119	162.68893	927.23755	-1103.5532	322.92068	960.09027	-1015.6033	319.64264	960.70959	-942.00024	149.1479	912.33002	-866.10352	314.78864	970.4884	-979.91479	296.40176	1401.6409	-963.62067	162.19536	1329.0596	-980.99286	319.68338	1118.0051	-974.14526	235.53586	1406.8047	-1112.4326	214.71362	1398.7413	-830.89111	237.24565	606.52966	-808.03973	261.78156	546.0813	-819.29517	211.14781	545.85693	-818.38354	229.8683	449.37421	-841.13281	242.40036	442.12949	-939.73767	256.64221	233.65739	-819.74908	306.86377	232.51741	-815.70697	280.07361	173.50783	-825.85834	284.28607	71.809738	-914.73694	297.88058	69.619278	-843.43597	340.98154	33.973091	-881.67419	143.87051	39.164017	-873.69067	169.43265	26.829514	-796.99005	144.85243	37.245106	-837.72314	257.7547	608.06635	-1156.9861	230.00034	549.31201	-1149.5253	281.66388	547.68921	-1147.5227	240.35486	455.21375	-1125.7297	247.79912	449.55127	-1024.7291	271.54507	276.89914	-1159.9932	294.40033	215.26524	-1155.6874	322.44846	275.33133	-1161.1775	307.6174	73.593849	-1134.9366	276.83325	75.648087	-1063.9955	351.59927	28.435156	-1095.3423	178.78214	29.319344	-1179.4409	151.10324	37.714161	-1115.5316	156.16702	36.016289	-1148.2788	202.48425	1278.2584	-580.94141	253.09265	1329.621	-563.3927	252.08936	1361.6344	-644.3598	281.88608	1322.0883	-640.08405	268.108	1367.8204	-704.21161	231.56317	1333.9857	-326.59708	167.79666	1351.3853	-319.35312	179.00578	1348.2689	-245.23959	282.06851	1341.2583	-1611.5145	221.69225	1357.5283	-1612.5963	221.05879	1354.3899	-1686.3829	263.99161	1278.8475	-1374.3749	302.79068	1339.0072	-1377.4031	308.96939	1363.3835	-1217.2709	312.29892	1351.5887	-1277.5359	327.6474	1318.1105	-1207.6196
